<?xml version="1.0" standalone="no"?>
<!DOCTYPE svg PUBLIC "-//W3C//DTD SVG 20010904//EN"
 "http://www.w3.org/TR/2001/REC-SVG-20010904/DTD/svg10.dtd">
<svg version="1.0" xmlns="http://www.w3.org/2000/svg"
 width="1125.000000pt" height="1125.000000pt" viewBox="0 0 1125.000000 1125.000000"
 preserveAspectRatio="xMidYMid meet">
<metadata>
Created by potrace 1.14, written by Peter Selinger 2001-2017
</metadata>
<g transform="translate(0.000000,1125.000000) scale(0.100000,-0.100000)"
fill="#000000" stroke="none">
<path d="M6130 11188 c-36 -11 -126 -41 -195 -65 -22 -8 -67 -27 -100 -43 -33
-16 -73 -31 -90 -35 -82 -17 -103 -23 -140 -43 -22 -11 -52 -32 -67 -46 -15
-14 -29 -26 -32 -26 -3 0 -29 -18 -58 -40 -57 -42 -128 -121 -128 -141 0 -7
-3 -9 -7 -6 -3 4 -13 1 -22 -7 -9 -8 -31 -17 -49 -19 -32 -5 -119 -71 -121
-92 -1 -5 -15 -19 -31 -30 -16 -11 -30 -26 -30 -32 0 -7 -8 -13 -17 -13 -15 0
-16 -2 -3 -10 9 -6 20 -5 30 3 13 11 13 10 1 -5 -7 -10 -20 -18 -28 -18 -8 0
-40 -20 -71 -44 -61 -47 -119 -74 -93 -42 12 14 12 16 -2 10 -9 -3 -23 -17
-32 -30 -9 -14 -21 -22 -28 -18 -7 4 -9 4 -5 -1 4 -4 -1 -20 -12 -35 -11 -16
-20 -31 -20 -34 0 -3 -8 -15 -17 -26 -10 -11 -18 -24 -18 -28 0 -17 -55 -72
-72 -72 -14 0 -15 -2 -4 -9 8 -5 21 -6 30 -3 14 5 14 4 1 -10 -8 -9 -18 -14
-22 -11 -5 2 -8 -3 -8 -12 0 -9 -4 -13 -10 -10 -10 6 -14 -7 -10 -34 1 -9 -4
-12 -14 -8 -10 4 -16 1 -16 -6 0 -7 -13 -25 -28 -40 -25 -24 -28 -25 -28 -8 0
11 4 18 7 15 4 -2 10 0 13 5 3 5 0 11 -7 13 -6 3 -23 -9 -37 -25 -20 -25 -21
-30 -7 -24 12 5 16 3 11 -5 -4 -6 -6 -36 -6 -67 2 -51 -1 -59 -32 -94 -19 -21
-40 -54 -47 -75 -24 -73 -49 -109 -102 -143 -60 -39 -77 -53 -77 -68 0 -18 18
-13 41 12 12 12 19 15 15 7 -4 -8 0 -6 8 4 21 26 29 16 13 -17 -10 -23 -29
-34 -40 -24 -1 1 -18 -13 -37 -30 -19 -18 -38 -33 -41 -33 -9 0 -49 -77 -43
-82 2 -3 -5 -13 -15 -22 -11 -10 -17 -24 -14 -31 7 -20 -67 -56 -88 -42 -9 6
-35 7 -64 3 -36 -6 -57 -17 -86 -44 -37 -36 -63 -102 -40 -102 6 0 11 -7 11
-16 0 -9 5 -12 12 -8 7 5 9 2 6 -7 -3 -8 1 -20 8 -27 11 -10 14 -10 14 0 0 9
3 9 12 0 8 -8 8 -15 -2 -26 -7 -9 -16 -14 -20 -11 -9 5 -5 -13 15 -86 11 -39
11 -51 0 -73 -14 -26 -45 -62 -45 -52 0 2 -14 -9 -31 -26 -17 -17 -34 -27 -37
-22 -13 17 -29 13 -60 -14 -39 -35 -82 -114 -75 -140 2 -11 -5 -41 -16 -67
-12 -26 -21 -53 -21 -59 0 -6 -9 -17 -19 -23 -11 -7 -18 -20 -15 -30 5 -23
-63 -60 -79 -44 -14 14 -50 14 -42 0 4 -6 14 -8 22 -4 12 4 13 2 5 -8 -9 -10
-5 -13 16 -12 15 1 35 -7 44 -17 10 -9 34 -20 53 -24 19 -3 38 -10 41 -15 3
-5 2 -9 -3 -8 -21 4 -34 -2 -27 -13 4 -7 3 -8 -5 -4 -17 11 -24 -19 -11 -44
14 -26 57 -24 52 3 -2 9 2 17 8 17 6 0 8 -4 5 -10 -10 -16 7 -12 27 7 17 15
18 15 18 -9 0 -34 -26 -54 -82 -61 -35 -5 -47 -3 -52 8 -4 11 -16 14 -40 11
-29 -4 -34 -2 -30 12 5 16 5 16 -8 0 -17 -20 -55 -14 -76 11 -11 14 -12 13 -6
-9 6 -22 5 -23 -9 -12 -9 8 -21 11 -27 7 -5 -3 -10 -1 -10 6 0 7 -3 9 -6 6 -4
-3 -15 -2 -26 4 -11 6 -27 12 -36 14 -9 1 -37 9 -62 16 -25 7 -58 12 -75 11
-28 -1 -29 0 -11 14 18 13 17 14 -18 14 -20 0 -35 -4 -32 -9 4 -5 -14 -7 -41
-5 -27 2 -67 6 -89 8 -23 1 -46 6 -51 9 -6 4 -13 -2 -16 -12 -4 -15 2 -20 32
-25 20 -3 50 -6 66 -6 23 0 27 -3 15 -10 -8 -5 -27 -10 -41 -10 -34 0 -89 -19
-89 -31 0 -6 7 -6 18 0 11 6 34 6 58 1 21 -5 94 -7 162 -5 111 2 127 1 165
-19 33 -18 45 -32 60 -72 35 -95 33 -107 -26 -169 -54 -56 -74 -68 -63 -39 5
13 4 14 -7 6 -8 -7 -17 -9 -20 -6 -3 4 -13 -1 -22 -10 -9 -9 -22 -16 -30 -16
-12 0 -31 -48 -22 -57 3 -2 12 3 20 12 9 8 20 15 24 14 8 -2 86 30 136 56 20
10 27 11 28 2 0 -7 4 -2 9 11 16 38 27 24 27 -33 0 -34 -5 -59 -13 -66 -8 -6
-12 -14 -10 -18 3 -4 -3 -7 -12 -8 -9 0 -31 -3 -49 -6 -26 -4 -38 0 -62 24
-35 33 -41 25 -12 -13 13 -15 18 -33 14 -46 -3 -12 0 -28 6 -35 6 -8 8 -17 5
-20 -4 -3 9 -5 27 -4 42 2 57 -24 60 -103 1 -32 8 -62 17 -72 14 -16 13 -18
-1 -18 -10 0 -17 5 -17 11 0 6 -8 9 -18 7 -15 -4 -18 -1 -14 20 l5 26 -23 -22
-23 -22 -33 25 c-17 13 -34 21 -38 18 -3 -4 -6 0 -6 8 0 8 5 20 11 26 9 9 6
10 -11 6 -23 -6 -23 -6 4 30 16 21 32 37 37 37 5 0 9 6 9 13 0 6 -17 -5 -36
-26 -29 -31 -41 -37 -60 -33 -13 4 -24 13 -24 21 0 8 -3 15 -8 15 -4 0 -30 21
-57 46 -28 25 -74 61 -103 80 -29 19 -50 39 -47 44 4 6 -1 10 -9 10 -8 0 -17
8 -20 18 -9 27 -48 68 -84 86 -44 23 -87 61 -156 141 -23 27 -25 28 -26 10 0
-12 31 -56 71 -100 39 -44 83 -95 97 -113 13 -18 27 -30 30 -27 9 9 75 -45
160 -133 45 -46 81 -85 80 -87 -2 -1 -18 -12 -36 -24 -18 -13 -35 -22 -36 -20
-2 2 -33 54 -70 116 -37 61 -75 117 -84 125 -16 12 -16 11 -2 -5 8 -11 13 -33
12 -49 -2 -25 0 -29 11 -19 11 9 21 -3 50 -60 36 -70 47 -106 27 -94 -5 3 -10
-1 -10 -11 0 -11 -4 -14 -12 -7 -15 11 -28 11 -45 0 -8 -5 -13 -4 -13 2 0 6
-6 11 -13 11 -23 0 -49 34 -35 48 8 8 4 10 -18 7 l-29 -5 24 14 c17 9 25 23
26 45 2 35 0 36 -35 16 -14 -8 -36 -14 -49 -15 l-25 0 22 20 c25 23 30 39 7
20 -9 -7 -18 -10 -22 -7 -3 4 -13 1 -21 -6 -13 -10 -15 -9 -10 4 7 19 -4 39
-23 43 -25 4 -69 38 -62 49 3 6 1 7 -6 3 -6 -4 -18 -2 -26 4 -8 6 -19 9 -25 5
-5 -3 -10 0 -10 8 0 14 -64 74 -138 128 -43 31 -43 31 -37 7 4 -14 41 -61 83
-104 109 -112 184 -242 106 -183 -6 5 -14 6 -17 2 -4 -3 -9 1 -13 10 -4 12
-11 14 -29 7 -21 -8 -41 -5 -105 18 -8 3 -20 6 -26 7 -16 1 -44 26 -44 39 0 7
-12 12 -27 11 -16 0 -38 10 -51 23 -13 12 -28 20 -33 17 -5 -4 -9 3 -9 14 0
11 4 22 10 26 5 3 6 13 3 22 -5 12 -3 14 8 8 11 -6 12 -5 2 5 -7 7 -20 14 -30
15 -10 1 -29 7 -43 14 -14 8 -22 10 -18 6 4 -4 2 -19 -3 -33 -6 -15 -7 -23 -3
-19 4 4 13 2 21 -4 16 -14 18 2 1 19 -6 6 -9 14 -6 18 9 9 30 -35 23 -47 -5
-7 -11 -6 -21 2 -8 6 -14 8 -14 4 0 -4 -7 -2 -15 5 -12 10 -15 10 -15 0 0 -7
-7 -10 -16 -6 -8 3 -12 2 -9 -4 14 -23 -24 -7 -49 20 -36 41 -60 145 -51 225
9 85 52 243 80 290 29 50 70 89 85 80 6 -3 9 -1 8 5 -3 12 120 62 138 56 6 -2
11 2 11 10 0 35 -97 29 -199 -12 -34 -14 -95 -32 -136 -40 -41 -8 -86 -23
-101 -33 -67 -48 -116 -163 -127 -301 -8 -96 7 -176 51 -267 36 -77 40 -95 8
-40 -37 62 -72 166 -78 229 -13 126 40 298 113 366 20 20 32 33 25 29 -7 -4
-41 -3 -77 4 -54 9 -74 8 -122 -6 -97 -28 -119 -47 -166 -144 -29 -60 -32 -74
-34 -180 -2 -115 11 -219 35 -276 35 -86 65 -145 71 -145 9 0 58 -40 107 -87
19 -18 40 -33 47 -33 7 0 21 -9 31 -20 10 -11 30 -20 45 -20 14 0 31 -5 37
-11 21 -21 92 -30 121 -15 15 8 53 17 84 21 49 6 59 5 64 -9 7 -17 2 -22 -70
-73 -35 -25 -49 -28 -165 -34 -85 -5 -148 -14 -193 -28 -90 -29 -100 -46 -22
-37 32 4 86 9 119 12 33 3 83 9 110 14 28 4 73 6 102 3 49 -4 55 -2 125 47 40
28 74 46 76 40 9 -25 -11 -83 -38 -114 -34 -38 -38 -58 -13 -54 11 2 19 -6 24
-22 4 -14 7 -19 8 -11 1 8 7 19 14 25 8 6 24 45 37 86 66 212 79 245 94 242
25 -4 118 -70 171 -121 28 -26 66 -59 85 -72 38 -25 40 -27 85 -62 17 -13 39
-27 50 -31 19 -7 19 -8 -6 -21 -14 -8 -57 -19 -95 -25 -37 -6 -73 -15 -79 -19
-5 -5 -17 -9 -25 -9 -62 -4 -104 -15 -122 -32 -12 -11 -25 -20 -30 -20 -8 0
-68 -58 -89 -87 -27 -35 -50 -47 -92 -44 -23 1 -46 6 -53 12 -22 18 -25 -62
-5 -117 10 -27 24 -75 31 -107 10 -52 15 -59 50 -77 50 -25 64 -25 90 2 11 12
20 18 20 13 0 -5 7 1 16 13 8 12 19 20 24 17 5 -3 11 4 15 15 3 11 11 20 16
20 5 0 8 3 8 8 -6 35 30 69 81 78 8 2 28 6 44 10 22 5 27 4 21 -6 -6 -9 -2 -9
16 1 13 7 24 12 24 11 0 -8 116 -38 120 -31 4 5 11 7 16 4 5 -4 9 -1 9 6 0 10
3 10 11 2 9 -9 16 -3 30 24 10 20 16 40 13 44 -2 5 4 17 15 28 10 10 24 27 30
37 8 14 11 15 10 4 -3 -36 1 -51 14 -44 9 6 9 5 0 -8 -7 -8 -10 -17 -7 -21 3
-3 -3 -12 -15 -19 -28 -17 -27 -88 2 -88 7 0 7 4 -1 12 -14 14 -16 28 -4 28 5
0 15 -11 22 -25 7 -14 20 -25 28 -25 13 0 14 -15 9 -97 -4 -54 -13 -152 -22
-218 -37 -302 -52 -371 -148 -705 -66 -224 -88 -324 -88 -391 0 -33 -5 -57
-10 -54 -5 4 -6 -1 -3 -9 9 -23 -11 -20 -55 9 -36 24 -42 25 -85 14 -43 -10
-96 -55 -96 -79 0 -5 -9 -11 -19 -15 -22 -7 -18 -35 5 -35 8 0 14 -4 14 -10 0
-5 9 -10 21 -10 15 0 19 -5 15 -15 -3 -9 0 -15 9 -15 10 0 15 10 15 29 0 17 5
33 11 37 6 3 9 17 6 31 -9 46 46 52 123 13 19 -10 42 -20 50 -23 8 -2 22 -24
31 -48 14 -39 14 -57 3 -149 -7 -57 -10 -109 -6 -115 3 -5 9 -363 13 -795 6
-782 11 -896 49 -1190 5 -41 15 -142 21 -225 6 -82 17 -175 24 -205 8 -30 17
-77 21 -105 13 -98 43 -197 71 -237 15 -22 35 -50 43 -63 8 -12 36 -46 61 -76
62 -73 64 -77 84 -215 21 -145 39 -174 169 -285 l84 -71 4 -97 c3 -104 18
-146 92 -261 l36 -55 10 -205 c5 -115 19 -262 31 -335 19 -110 30 -146 70
-230 55 -114 114 -223 134 -245 15 -17 111 -192 128 -233 l11 -27 2112 0 2113
0 6 58 c4 31 11 71 15 87 5 17 13 77 19 135 6 58 18 159 26 225 8 66 18 174
21 240 5 97 12 138 37 215 37 111 41 198 14 300 -10 40 -17 112 -19 187 -2
117 -1 123 22 148 14 15 34 25 52 25 36 0 76 20 103 52 11 13 33 33 49 45 39
31 66 89 66 143 0 25 -7 90 -15 145 -8 55 -12 125 -9 155 5 44 1 68 -19 120
-16 43 -26 97 -31 160 -4 52 -14 151 -22 220 l-15 125 49 130 c72 191 202 655
202 723 0 15 6 38 13 52 12 24 15 25 137 26 95 0 136 -3 170 -16 73 -28 110
-34 110 -18 0 15 62 51 93 54 13 1 16 -4 11 -20 -4 -13 19 3 62 45 38 37 85
75 104 84 97 48 280 154 350 204 264 188 361 274 467 415 93 123 210 354 194
384 -6 11 -6 24 0 33 7 11 9 8 10 -11 1 -44 28 46 44 145 7 50 27 123 44 164
36 87 37 95 11 88 -11 -3 -18 -1 -15 3 10 17 -14 20 -30 4 -15 -15 -15 -18 1
-35 22 -24 6 -72 -39 -113 -27 -26 -69 -101 -66 -121 1 -6 -11 -63 -17 -88 -3
-9 -17 -24 -32 -32 -15 -8 -21 -14 -14 -15 8 0 -1 -26 -24 -70 -34 -64 -40
-70 -68 -70 -38 0 -52 -9 -54 -35 -4 -54 -21 -115 -33 -115 -5 0 -9 -9 -9 -19
0 -11 -5 -23 -10 -26 -6 -4 -8 -10 -5 -15 3 -4 -2 -13 -10 -20 -8 -7 -15 -17
-15 -23 0 -6 -12 -37 -26 -68 -27 -58 -53 -79 -99 -79 -37 0 -98 81 -96 128 1
6 2 26 3 43 1 17 -4 34 -12 39 -7 4 -9 13 -5 20 11 18 -15 30 -38 18 -10 -5
-17 -12 -14 -15 3 -2 -1 -16 -8 -30 -7 -14 -11 -32 -8 -39 6 -15 -18 -73 -48
-115 -10 -14 -16 -29 -12 -33 3 -3 0 -6 -7 -6 -7 0 -11 -3 -7 -6 13 -13 -26
-37 -69 -42 -25 -2 -61 -13 -81 -23 -39 -20 -56 -17 -46 6 3 8 2 15 -1 15 -8
0 -26 -45 -32 -79 -7 -36 -23 -63 -52 -90 -15 -13 -21 -20 -14 -17 6 4 12 2
12 -3 0 -6 -4 -12 -10 -12 -5 -1 -14 -2 -19 -3 -5 0 -13 -5 -18 -10 -4 -5 -3
-6 3 -3 22 12 24 -25 4 -53 -11 -15 -22 -46 -25 -69 -3 -26 -18 -58 -39 -86
-19 -25 -40 -61 -47 -80 -18 -49 -34 -38 -36 25 -2 30 -7 58 -13 64 -7 7 -10
6 -10 -2 0 -7 -14 -12 -35 -12 -19 0 -57 -9 -85 -20 -28 -11 -60 -20 -72 -20
-21 0 -21 1 -3 13 10 8 15 19 11 25 -7 12 8 17 71 27 24 4 46 11 49 17 4 6 -1
8 -12 4 -11 -3 -50 -10 -89 -16 -38 -6 -113 -24 -167 -40 -53 -17 -103 -30
-112 -30 -22 0 -20 19 5 40 21 19 25 41 14 77 -5 15 -3 23 4 23 7 0 9 -5 5
-12 -5 -7 -3 -8 6 -3 10 6 9 11 -4 20 -12 9 -15 20 -10 39 4 17 2 26 -6 26 -6
0 -8 5 -4 13 5 7 0 6 -11 -3 -17 -14 -18 -12 -10 54 4 38 12 81 17 95 27 67
69 196 73 223 11 69 46 202 69 263 15 38 23 65 17 60 -5 -6 -37 -43 -70 -83
l-61 -74 0 34 c0 18 5 71 11 118 l10 84 68 70 c38 39 84 89 102 111 19 22 37
42 42 43 4 2 5 7 2 12 -3 4 1 10 9 13 10 4 16 -5 20 -29 4 -19 11 -34 16 -34
6 0 11 -12 11 -27 1 -18 4 -11 9 19 8 43 51 131 71 144 5 3 9 9 9 14 0 14 -47
-6 -115 -49 -33 -21 -91 -55 -130 -77 -38 -21 -75 -49 -81 -62 -6 -12 -13 -24
-16 -27 -5 -5 -2 93 12 456 10 254 26 349 57 349 8 0 22 7 30 16 13 13 18 13
25 2 5 -8 7 3 4 29 -4 34 -2 41 10 36 9 -3 14 0 12 8 -2 8 5 14 17 15 29 0 96
35 89 45 -3 5 2 6 10 3 9 -3 16 -1 16 5 0 6 6 11 14 11 8 0 16 6 19 13 3 6 10
-1 16 -17 9 -21 9 -32 0 -42 -6 -8 -8 -14 -4 -14 5 0 0 -9 -10 -20 -9 -10 -15
-26 -11 -35 3 -9 2 -14 -2 -11 -4 2 -14 0 -22 -5 -13 -9 -13 -9 0 -7 18 3 62
-20 56 -30 -7 -12 20 -32 45 -32 5 0 8 -4 4 -9 -5 -9 10 -24 30 -27 6 -1 19
-6 30 -10 16 -6 18 -5 9 7 -6 8 -11 26 -12 40 -1 14 -8 39 -17 55 -8 16 -15
36 -15 45 0 18 -40 140 -50 154 -10 14 -6 53 7 66 6 6 61 14 122 17 117 5 141
-1 141 -40 0 -15 3 -17 19 -8 11 5 48 10 83 10 60 0 64 2 91 35 18 22 36 35
51 35 26 0 43 -26 23 -34 -7 -2 -5 -5 4 -5 9 -1 22 6 29 14 7 8 23 15 35 15
13 0 56 13 97 29 40 16 80 31 88 34 8 3 2 6 -15 7 l-30 1 35 19 c19 11 33 20
30 21 -26 9 -86 1 -139 -18 -35 -13 -72 -23 -81 -23 -10 0 -37 -11 -61 -24
-24 -14 -59 -24 -77 -24 -26 1 -30 3 -18 10 19 11 21 34 4 40 -18 7 -39 -2
-32 -13 3 -5 0 -9 -6 -9 -6 0 -9 -4 -5 -9 3 -6 -3 -10 -12 -9 -10 0 -64 -3
-120 -7 -92 -7 -103 -6 -103 9 0 14 -2 15 -14 4 -8 -7 -12 -16 -10 -19 8 -13
-78 9 -95 25 -10 9 -20 13 -23 10 -4 -3 -9 4 -13 15 -9 30 -54 51 -84 40 -19
-8 -21 -12 -11 -24 14 -16 5 -35 -16 -35 -12 0 -19 19 -15 43 2 16 -9 5 -34
-30 l-25 -38 0 46 0 47 78 11 c42 6 100 13 127 16 28 3 79 13 115 21 92 22
234 51 385 79 138 26 177 39 196 61 10 12 8 13 -15 5 -17 -7 -26 -7 -26 -1 0
6 -15 4 -35 -4 -19 -8 -35 -13 -35 -11 0 2 -15 -1 -32 -6 -18 -6 -61 -11 -95
-13 -50 -2 -68 -8 -98 -31 -28 -21 -42 -26 -53 -18 -10 5 -39 6 -76 1 -109
-15 -209 -18 -223 -7 -9 8 -14 8 -18 -3 -3 -7 -17 -15 -31 -16 -14 -1 -23 2
-20 7 3 5 -5 11 -19 13 -18 4 -25 1 -26 -11 0 -10 -4 -6 -10 9 -16 40 -40 60
-71 60 -32 0 -49 -26 -27 -42 11 -7 11 -11 2 -15 -7 -2 -13 -12 -13 -21 0 -13
-3 -12 -15 4 -18 23 -19 56 -3 72 9 9 8 16 -5 30 -9 10 -17 22 -17 26 0 4 -16
27 -35 50 -19 24 -35 46 -35 50 0 4 -10 16 -22 27 l-23 19 24 20 c27 23 81 27
81 6 0 -7 7 -19 16 -27 20 -17 33 2 26 38 -4 24 -3 25 22 19 33 -8 35 12 6 59
-18 30 -19 35 -5 61 8 16 15 40 15 54 0 14 9 45 20 69 24 52 25 84 5 101 -17
14 -20 50 -5 50 14 0 12 37 -4 68 -8 15 -37 47 -65 70 -28 24 -51 48 -51 54 0
7 6 6 15 -2 8 -7 15 -9 15 -5 0 4 -8 14 -17 22 -14 11 -15 16 -5 20 10 4 10 8
1 19 -6 8 -16 11 -22 7 -5 -3 -7 -1 -4 4 4 6 0 24 -8 39 -10 20 -15 23 -15 12
0 -10 -5 -18 -11 -18 -6 0 -8 7 -5 16 3 8 2 12 -4 9 -6 -3 -10 -13 -10 -21 0
-12 -4 -12 -19 -2 -11 7 -22 19 -26 28 -24 63 -73 118 -90 102 -5 -4 -5 -1 -1
5 8 15 -5 42 -19 40 -5 0 -17 12 -25 27 -13 24 -13 28 1 39 8 7 18 20 22 31 5
11 13 16 23 12 12 -5 14 2 9 45 -3 27 -14 72 -25 99 -19 49 -19 49 1 64 11 7
30 11 41 8 21 -5 21 -4 5 19 -19 26 -23 59 -7 59 13 0 13 27 -1 35 -14 9 -40
-26 -34 -45 3 -9 -1 -7 -10 4 -18 24 -19 37 -2 31 6 -3 18 4 24 14 10 16 9 29
-5 67 -9 26 -25 49 -34 52 -10 2 -18 8 -18 12 0 5 -8 6 -18 4 -21 -6 -73 39
-93 81 -12 25 -13 39 -4 75 7 25 16 54 22 65 6 11 16 33 23 49 6 17 14 25 18
20 9 -13 42 -26 42 -16 0 9 -42 37 -52 34 -4 -1 -5 5 -2 13 4 8 1 15 -7 15
-12 0 -69 57 -69 70 0 3 15 11 33 18 18 7 28 16 22 20 -6 4 -19 24 -30 45 -17
32 -18 39 -5 47 8 5 15 26 15 51 1 27 7 46 18 54 17 12 17 13 0 19 -15 6 -15
8 -3 16 23 15 30 12 30 -10 0 -18 10 -24 32 -21 32 4 73 13 77 16 2 3 -2 12
-10 21 -8 9 -13 26 -11 38 1 12 -10 34 -26 51 -23 24 -27 34 -18 47 11 18 -18
317 -34 347 -5 9 -11 23 -14 31 -14 35 -54 93 -96 139 -25 27 -53 61 -64 76
-13 18 -21 23 -26 15 -5 -8 -9 -7 -14 5 -8 23 -8 27 4 20 6 -3 10 -1 10 4 0 6
-5 11 -11 11 -7 0 -22 11 -35 25 -25 27 -23 31 7 15 15 -8 19 -7 19 5 0 18 5
19 33 4 22 -11 22 -11 -1 14 -13 14 -31 23 -40 21 -10 -3 -27 8 -44 28 -90
112 -116 146 -127 175 -7 17 -30 48 -52 68 -21 20 -39 39 -39 44 0 4 -27 36
-61 71 -43 45 -56 65 -47 71 9 6 8 9 -4 14 -10 4 -20 15 -23 26 -4 10 -13 19
-21 19 -8 0 -13 4 -10 9 9 14 -4 41 -20 41 -8 0 -14 5 -14 11 0 5 -4 8 -9 5
-10 -7 -34 18 -25 26 9 10 -78 157 -101 170 -7 4 -20 29 -30 55 -10 26 -21 50
-25 53 -3 3 -14 23 -24 45 -11 22 -25 43 -32 47 -12 8 -124 173 -124 183 0 4
-18 32 -39 63 -39 58 -101 123 -101 107 0 -5 -32 24 -71 64 -63 65 -74 73 -99
67 -18 -3 -32 -1 -37 7 -9 14 -45 16 -55 3 -4 -6 -12 -5 -20 2 -11 8 -18 8
-25 1 -7 -7 -17 -8 -24 -3 -16 10 -49 13 -49 5 0 -3 -11 -6 -25 -6 -14 0 -25
4 -25 8 0 5 -4 5 -10 2 -5 -3 -10 2 -10 12 0 14 -2 15 -9 5 -4 -8 -21 -13 -37
-12 -16 1 -31 1 -34 0 -24 -8 -50 -8 -50 1 0 8 -19 10 -61 6 -66 -6 -141 17
-152 46 -4 10 -13 13 -26 10 -12 -3 -33 4 -50 17 -17 12 -35 19 -40 16 -5 -3
-14 1 -21 9 -14 17 -50 20 -50 4 0 -6 8 -8 19 -4 23 7 39 -14 20 -25 -7 -5
-22 -4 -33 3 -12 6 -28 12 -36 13 -23 2 -111 15 -124 19 -6 1 -27 -2 -46 -7z
m280 -38 c0 -5 -2 -10 -4 -10 -3 0 -8 5 -11 10 -3 6 -1 10 4 10 6 0 11 -4 11
-10z m40 -16 c0 -2 -7 -4 -15 -4 -8 0 -15 4 -15 10 0 5 7 7 15 4 8 -4 15 -8
15 -10z m725 -94 c3 -5 2 -10 -4 -10 -5 0 -13 5 -16 10 -3 6 -2 10 4 10 5 0
13 -4 16 -10z m-589 -92 c4 -7 3 -8 -4 -4 -7 4 -12 3 -12 -3 0 -5 5 -13 10
-16 6 -3 10 -1 10 6 0 7 10 9 25 7 14 -3 28 -2 31 3 2 4 11 6 19 3 8 -4 12
-10 9 -15 -3 -5 4 -9 15 -9 12 0 21 -4 21 -10 0 -5 6 -8 13 -6 6 1 9 1 5 -1
-13 -7 -9 -20 8 -27 8 -3 12 -2 9 4 -13 21 16 9 40 -17 14 -16 33 -28 43 -28
26 -1 61 -27 55 -42 -3 -7 6 -18 20 -24 14 -6 28 -20 30 -31 3 -11 10 -17 16
-13 10 6 15 -7 12 -28 -1 -4 7 -7 16 -5 13 2 17 -3 15 -15 -2 -11 4 -27 13
-37 9 -10 16 -27 15 -37 -4 -34 0 -54 9 -48 5 3 13 0 17 -6 4 -7 3 -9 -3 -6
-14 9 -24 -18 -13 -29 5 -5 11 -19 13 -32 2 -12 16 -35 32 -52 16 -16 25 -33
22 -37 -4 -3 -7 -1 -7 5 0 25 -15 10 -16 -16 -1 -15 1 -21 3 -14 8 21 20 13
27 -19 3 -17 9 -28 14 -25 4 2 13 -4 20 -14 11 -18 9 -19 -31 -14 -109 13
-160 12 -205 -4 -26 -9 -49 -20 -50 -25 -2 -4 -9 -13 -16 -20 -14 -14 -27 -57
-17 -55 19 2 17 -5 -10 -34 -20 -22 -29 -43 -29 -65 0 -20 -5 -33 -12 -33 -10
0 -9 -3 1 -9 10 -7 11 -12 1 -27 -11 -18 -11 -18 -5 1 4 14 3 17 -4 10 -6 -6
-11 -55 -12 -110 -2 -86 0 -106 20 -143 27 -52 21 -76 -22 -92 -18 -6 -40 -16
-49 -21 -10 -5 -18 -6 -18 -2 0 5 -15 9 -32 9 -55 3 -77 8 -72 16 3 4 1 8 -4
8 -12 0 -124 -20 -144 -26 -12 -4 -18 0 -18 10 0 21 -18 20 -22 -1 -3 -15 -4
-15 -20 0 -22 22 -30 7 -17 -30 13 -39 48 -54 102 -47 47 7 84 -7 125 -46 26
-25 132 -45 143 -27 11 16 58 -25 59 -51 0 -13 4 -20 10 -17 6 3 11 1 11 -4 2
-16 4 -23 17 -54 15 -36 15 -37 -5 -37 -14 0 -15 2 -5 9 10 6 10 10 -1 20 -12
9 -16 7 -21 -11 -4 -14 -9 -19 -13 -12 -5 6 -21 10 -36 10 -15 -1 -33 2 -40 6
-6 4 -17 2 -24 -4 -9 -7 -14 -6 -19 5 -3 10 -13 14 -27 10 -43 -9 -73 -9 -157
4 -55 8 -111 9 -158 4 -61 -6 -72 -5 -67 7 3 10 0 12 -10 8 -9 -3 -15 0 -15 9
0 8 -4 15 -9 15 -13 0 -32 -26 -24 -34 4 -4 0 -4 -10 0 -10 3 -17 1 -17 -5 0
-8 -5 -9 -17 -2 -12 6 -21 5 -31 -7 -7 -10 -11 -11 -7 -4 9 17 -10 15 -25 -3
-19 -23 4 -90 49 -145 20 -24 37 -48 37 -52 1 -5 2 -12 3 -18 0 -5 8 -10 16
-10 8 0 14 -6 13 -12 -2 -7 3 -12 10 -10 8 1 11 -2 7 -8 -3 -6 -10 -8 -15 -5
-5 3 -11 1 -15 -5 -3 -5 -1 -10 4 -10 6 0 11 -8 11 -17 0 -10 10 -30 23 -45
12 -14 30 -38 41 -52 10 -14 30 -32 45 -39 67 -35 97 -53 104 -62 4 -6 13 -3
21 8 15 19 33 7 21 -14 -4 -6 2 -5 14 3 12 7 21 16 21 20 0 5 5 8 11 8 5 0 8
-4 5 -9 -3 -5 3 -11 14 -14 10 -3 21 0 24 7 2 6 5 1 5 -11 1 -13 6 -23 12 -23
5 0 8 4 5 9 -3 5 3 11 14 14 11 3 18 1 15 -4 -4 -5 8 -6 25 -3 25 5 29 4 24
-9 -3 -8 0 -18 7 -23 8 -5 10 -3 4 7 -7 11 -6 12 6 2 8 -6 27 -10 41 -9 15 2
26 -1 25 -6 -1 -6 13 -12 31 -14 22 -3 31 0 26 7 -4 8 -1 8 13 1 15 -8 22 -7
31 9 7 10 17 19 23 19 5 0 7 -5 4 -10 -4 -6 -3 -10 2 -9 18 3 57 -3 47 -7 -7
-3 -10 -13 -7 -22 3 -12 -5 -23 -21 -32 -14 -7 -26 -17 -26 -22 0 -5 4 -7 8
-4 5 3 9 -1 9 -9 0 -8 -4 -12 -9 -9 -5 4 -9 0 -7 -7 1 -8 1 -21 0 -29 -1 -13
-2 -13 -11 0 -7 11 -10 11 -10 2 0 -7 -5 -10 -11 -6 -7 4 -9 0 -5 -14 4 -12 1
-26 -9 -36 -9 -9 -13 -16 -8 -16 4 0 0 -5 -10 -11 -11 -6 -25 -26 -33 -44 -8
-20 -27 -40 -46 -50 -39 -19 -108 -36 -108 -26 0 4 -9 7 -20 8 -11 1 -18 -2
-16 -6 3 -4 -8 -7 -25 -6 -16 1 -32 -2 -35 -7 -3 -4 -9 -6 -14 -3 -5 3 -24 8
-42 10 -67 9 -98 17 -92 26 3 5 -2 9 -11 9 -9 0 -14 4 -11 8 2 4 -7 7 -22 7
-32 -1 -72 14 -72 27 0 6 -6 8 -12 6 -13 -5 -48 32 -48 50 0 5 -11 17 -24 28
-14 10 -28 29 -31 43 -5 20 -8 22 -16 10 -6 -10 -9 -11 -9 -1 0 7 -5 10 -11 6
-7 -4 -7 1 1 16 9 16 9 20 0 15 -6 -4 -19 2 -29 14 -10 11 -21 18 -25 14 -3
-3 -6 -2 -6 4 0 6 -8 13 -18 15 -12 4 -18 -1 -19 -13 -2 -22 6 -28 40 -31 18
-2 23 -7 19 -20 -4 -17 -5 -17 -17 -1 -11 15 -12 14 -10 -10 4 -33 -3 -35 -15
-4 -6 15 -9 17 -9 5 -1 -14 -5 -14 -25 -5 -17 8 -22 15 -15 23 6 8 4 17 -6 28
-15 15 -15 16 2 17 10 0 13 3 6 6 -7 2 -13 9 -13 14 0 6 5 7 10 4 6 -3 10 -2
10 4 0 6 6 8 14 5 8 -3 18 1 22 8 11 18 22 108 12 102 -4 -3 -8 2 -8 11 0 8
-7 18 -16 22 -8 3 -13 12 -9 21 3 8 -3 21 -12 28 -10 7 -13 14 -6 14 8 0 7 9
-4 30 -8 17 -12 38 -9 46 3 8 2 12 -4 9 -9 -6 -14 10 -13 43 1 6 -3 12 -9 12
-5 0 -6 5 -3 11 4 5 -1 19 -10 29 -10 11 -17 32 -17 47 0 15 -4 36 -9 45 -6
11 -5 19 3 24 6 4 8 3 4 -4 -3 -6 -3 -13 2 -16 13 -8 10 25 -4 53 -10 20 -11
27 -1 33 9 6 8 8 -3 8 -11 0 -9 6 7 23 54 55 64 69 59 83 -3 8 -15 14 -27 14
-17 0 -19 3 -10 14 9 11 8 15 -5 20 -9 4 -14 9 -11 13 3 3 0 18 -8 34 -8 15
-15 38 -15 51 0 18 -2 20 -10 8 -5 -8 -7 -23 -4 -32 8 -27 -11 -22 -26 7 -7
13 -17 22 -23 18 -5 -3 0 8 13 25 15 20 19 35 14 44 -5 7 -9 45 -10 84 0 55 3
71 13 67 16 -6 16 2 3 27 -7 13 -6 19 4 23 9 4 13 0 11 -11 -1 -9 1 -22 6 -27
9 -12 7 -34 -4 -52 -4 -6 -4 -19 0 -29 5 -13 3 -15 -8 -9 -8 5 -5 -2 6 -15 11
-13 15 -20 9 -17 -7 4 -14 -2 -17 -13 -10 -37 14 -20 34 24 14 33 17 51 10 69
-21 55 0 157 32 157 6 0 2 -7 -9 -16 -18 -15 -18 -15 4 -9 30 8 28 -8 -3 -25
-25 -13 -34 -30 -15 -30 14 0 50 41 50 57 0 8 5 11 11 7 6 -3 9 -14 6 -24 -3
-11 1 -21 8 -23 8 -4 10 2 8 17 -4 21 -3 22 124 19 70 -2 156 -5 190 -8 38 -2
65 0 69 7 4 7 9 5 15 -3 6 -11 11 -11 20 -2 13 13 4 99 -12 108 -5 4 -7 10 -4
15 13 22 -40 82 -65 75 -8 -3 -22 0 -30 6 -11 8 -9 9 10 3 14 -3 21 -3 17 2
-5 5 -32 9 -62 9 -57 0 -79 10 -55 25 13 8 12 10 -3 10 -15 0 -16 3 -7 20 6
11 8 26 4 32 -5 8 -10 6 -14 -7 -4 -10 -14 -19 -23 -21 -10 -1 -15 2 -12 6 3
5 -3 14 -14 20 -15 8 -20 18 -17 40 5 41 -12 27 -20 -16 -7 -38 -24 -29 -24
13 0 12 -4 24 -9 27 -4 3 -6 -6 -3 -19 2 -14 -1 -32 -8 -40 -9 -10 -9 -15 -1
-15 6 0 11 -4 11 -10 0 -5 -11 -10 -25 -10 -14 0 -25 5 -25 11 0 5 5 7 10 4
10 -6 15 20 11 61 -1 12 5 33 12 48 15 28 30 21 40 -19 2 -11 3 -5 1 14 -2 18
-1 31 3 28 3 -4 19 1 36 9 42 22 106 11 154 -28 21 -16 58 -39 83 -51 25 -11
47 -23 50 -26 9 -11 65 -28 78 -23 16 5 15 23 -4 62 -11 21 -19 28 -24 20 -5
-8 -12 -5 -24 11 -9 13 -20 24 -24 24 -4 1 -17 6 -29 13 -12 7 -26 11 -30 10
-4 -1 -18 3 -30 10 -12 6 -54 16 -94 22 -40 6 -87 20 -106 31 -34 21 -44 55
-19 65 8 3 16 15 19 26 3 11 10 17 15 14 6 -3 12 1 16 9 3 8 0 17 -5 21 -12 7
-2 56 13 66 6 3 11 22 10 42 -1 20 3 36 8 36 6 0 9 6 8 13 -2 6 4 11 12 9 8
-2 12 0 8 3 -11 11 11 47 24 39 7 -5 8 -2 4 5 -10 16 22 51 46 51 10 0 18 5
18 11 0 6 7 8 16 5 8 -3 12 -2 9 4 -8 14 35 29 74 26 20 -1 35 3 38 11 4 10
11 9 34 -3 19 -10 28 -11 27 -3 -5 19 18 21 36 4 15 -15 16 -15 16 4 0 23 15
28 26 9z m769 -78 c3 -5 1 -10 -4 -10 -6 0 -11 5 -11 10 0 6 2 10 4 10 3 0 8
-4 11 -10z m-1351 -446 c3 -8 2 -12 -4 -9 -6 3 -10 10 -10 16 0 14 7 11 14 -7z
m-1154 -39 c-15 -18 1 -20 18 -3 7 7 12 10 12 7 0 -3 -11 -16 -25 -29 -23 -22
-25 -22 -22 -4 3 21 15 44 24 44 3 0 0 -7 -7 -15z m1180 -54 c-6 -51 -25 -85
-41 -75 -5 3 -9 -5 -9 -18 0 -17 -3 -19 -9 -9 -6 9 -11 10 -15 2 -4 -6 -11 -9
-16 -6 -17 10 23 110 55 137 34 29 42 22 35 -31z m-1205 -1 c3 -5 4 -10 1 -10
-2 0 -12 -3 -20 -6 -12 -5 -15 -2 -10 10 7 18 20 21 29 6z m2320 -112 c31 -16
65 -50 81 -81 19 -35 5 -64 -31 -64 -15 0 -22 4 -18 11 5 8 2 7 -8 -1 -20 -16
-31 -17 -40 -1 -7 10 -11 10 -17 1 -5 -7 -36 -11 -86 -11 -59 1 -82 -3 -90
-14 -6 -8 -16 -13 -23 -11 -15 5 -81 -31 -98 -53 -12 -16 -12 -16 -10 7 7 61
55 118 119 140 21 8 41 21 43 29 18 56 23 60 92 59 36 -1 75 -6 86 -11z
m-2450 -77 c3 -6 -4 -15 -15 -21 -20 -11 -21 -10 -10 9 12 23 16 25 25 12z
m1518 -56 c1 -5 -6 -11 -15 -13 -11 -2 -18 3 -18 13 0 17 30 18 33 0z m47 -25
c0 -5 -4 -10 -10 -10 -5 0 -10 5 -10 10 0 6 5 10 10 10 6 0 10 -4 10 -10z m48
-1 c-2 -3 3 -13 11 -22 7 -10 12 -17 10 -18 -26 -4 -59 -7 -59 -4 0 17 22 56
31 53 6 -2 9 -6 7 -9z m652 -9 c0 -5 -2 -10 -4 -10 -3 0 -8 5 -11 10 -3 6 -1
10 4 10 6 0 11 -4 11 -10z m-2400 -46 c0 -8 -5 -12 -10 -9 -6 4 -8 11 -5 16 9
14 15 11 15 -7z m2405 -33 c7 -12 -12 -24 -25 -16 -11 7 -4 25 10 25 5 0 11
-4 15 -9z m45 -31 c0 -5 -5 -10 -11 -10 -5 0 -7 5 -4 10 3 6 8 10 11 10 2 0 4
-4 4 -10z m-130 -10 c0 -5 -7 -10 -16 -10 -8 0 -12 5 -9 10 3 6 10 10 16 10 5
0 9 -4 9 -10z m177 -22 c-3 -8 -6 -5 -6 6 -1 11 2 17 5 13 3 -3 4 -12 1 -19z
m-222 -18 c3 -5 13 -10 21 -10 8 0 13 4 9 9 -6 10 64 -6 80 -19 14 -11 133
-47 180 -55 22 -4 49 -12 60 -18 11 -6 24 -10 29 -9 22 7 43 -30 41 -73 -1
-24 2 -42 6 -40 13 8 7 -69 -6 -88 -13 -18 -13 -18 -25 0 -11 17 -11 17 -5 -2
4 -11 8 -27 10 -35 2 -8 6 -23 10 -32 5 -11 3 -18 -5 -18 -7 0 -10 -6 -7 -14
3 -8 -1 -13 -10 -12 -9 0 -24 -12 -33 -29 -10 -16 -22 -29 -26 -28 -11 2 -35
-24 -32 -34 2 -5 -8 -9 -20 -11 -23 -4 -67 30 -56 41 3 3 -4 10 -15 17 -12 6
-19 15 -16 19 3 5 -2 12 -11 15 -8 3 -14 13 -12 23 3 17 -24 51 -95 119 -12
11 -28 29 -35 40 -7 10 -10 14 -7 7 3 -6 -1 -13 -7 -16 -26 -9 -38 6 -38 47 0
22 -4 58 -9 79 -5 21 -5 37 0 37 5 0 9 7 9 16 0 9 -5 12 -12 8 -10 -6 -10 -4
0 8 9 11 10 23 2 42 -7 20 -6 26 5 26 7 0 17 -4 20 -10z m-1006 -171 c0 8 4
11 7 8 9 -9 -13 -34 -35 -40 -18 -4 -18 -3 -2 37 l16 41 6 -30 c4 -17 7 -24 8
-16z m1099 -157 c12 -19 12 -22 1 -17 -19 7 -46 49 -28 43 7 -2 19 -14 27 -26z
m334 -14 c-7 -7 -12 -8 -12 -2 0 14 12 26 19 19 2 -3 -1 -11 -7 -17z m-1329
-58 c-9 -16 -21 -30 -26 -30 -9 0 -1 17 21 43 23 26 25 21 5 -13z m1025 5 c-3
-3 -9 2 -12 12 -6 14 -5 15 5 6 7 -7 10 -15 7 -18z m1327 -35 c3 -5 1 -10 -4
-10 -6 0 -11 5 -11 10 0 6 2 10 4 10 3 0 8 -4 11 -10z m-4011 -157 c-29 -21
-36 -15 -18 19 15 28 17 30 27 13 7 -14 6 -21 -9 -32z m2182 25 c6 -19 7 -19
16 -5 11 20 35 22 75 6 15 -6 49 -11 74 -10 26 1 50 -2 54 -8 4 -8 12 -8 25
-1 14 7 23 6 34 -6 9 -8 16 -19 16 -23 0 -4 10 -7 23 -7 16 1 23 -5 25 -24 3
-35 -12 -55 -34 -45 -11 5 -30 10 -43 11 -13 2 -28 7 -34 13 -5 5 -16 7 -23 4
-7 -3 -44 0 -81 6 -76 13 -203 16 -247 5 -19 -4 -31 -2 -36 6 -7 11 -11 11
-23 1 -9 -7 -21 -11 -29 -10 -7 1 -22 -2 -32 -6 -13 -6 -23 -3 -32 9 -18 26
-6 49 22 43 16 -3 24 0 24 10 0 19 27 28 44 14 11 -10 16 -8 21 8 7 23 53 29
71 11 8 -8 15 -6 24 5 19 23 57 19 66 -7z m-2446 -48 c-12 -8 -9 -10 10 -11
16 -1 19 -3 8 -6 -9 -2 -26 1 -37 7 -25 13 -56 -10 -77 -55 -9 -20 -13 -24
-14 -12 0 26 31 76 49 80 9 2 29 4 46 4 21 1 25 -1 15 -7z m3095 -74 c-13 -90
-28 -138 -90 -271 -18 -38 -35 -78 -38 -87 -9 -27 -22 -22 -25 9 -1 15 -6 29
-11 32 -4 3 -7 14 -5 24 1 12 -5 17 -22 17 -18 0 -24 5 -24 21 0 11 4 17 10
14 7 -4 8 3 4 21 -5 21 -4 25 6 19 9 -5 11 -4 6 4 -4 6 -2 19 5 27 10 12 10
15 -2 12 -8 -2 -13 2 -12 7 5 29 9 41 18 48 6 6 5 11 -4 14 -10 4 4 14 37 29
41 18 50 26 45 40 -5 13 -3 15 8 9 11 -6 11 -5 2 5 -6 7 -9 19 -6 28 4 10 2
13 -5 8 -7 -4 -12 -1 -12 8 0 26 15 18 33 -16 9 -20 16 -26 16 -16 1 9 10 20
21 23 11 3 20 14 20 23 1 15 2 15 15 -2 8 -10 12 -32 10 -50z m-2896 -7 c-13
-26 -20 -21 -12 9 3 12 9 19 14 16 5 -3 4 -14 -2 -25z m-119 5 c36 -13 46 -13
55 -2 10 13 35 22 35 13 0 -11 -49 -55 -61 -55 -8 0 -8 -4 1 -15 10 -12 10
-15 -4 -15 -9 0 -16 7 -16 15 0 18 -32 17 -64 -2 -19 -10 -18 -11 3 -18 12 -4
25 -4 28 -1 3 3 15 0 26 -5 11 -6 16 -14 11 -18 -5 -3 -18 -25 -28 -48 -18
-40 -36 -57 -36 -33 0 6 -7 10 -16 10 -8 0 -13 4 -10 9 3 5 -1 14 -9 21 -8 7
-15 9 -15 5 0 -5 -3 -6 -6 -3 -3 4 2 18 12 32 9 15 14 29 11 33 -4 3 -9 -2
-13 -11 -10 -26 -21 -19 -22 14 0 17 -3 38 -6 48 -5 13 1 22 16 30 32 15 56
14 108 -4z m94 -59 c-7 -16 -44 -41 -44 -29 0 11 32 44 41 44 5 0 6 -7 3 -15z
m2286 -88 c14 -10 27 -13 30 -7 3 5 16 7 28 3 13 -3 19 -10 15 -17 -4 -6 1 -5
10 3 15 12 17 11 17 -7 0 -20 -5 -21 -66 -17 -36 2 -72 9 -80 16 -8 6 -14 8
-14 4 0 -4 -7 -2 -15 5 -8 7 -15 19 -15 27 0 18 58 12 90 -10z m143 -51 c-3
-4 -9 -2 -14 5 -13 22 -11 31 5 17 8 -7 12 -17 9 -22z m37 30 c0 -3 -4 -8 -10
-11 -5 -3 -10 -1 -10 4 0 6 5 11 10 11 6 0 10 -2 10 -4z m38 -37 c-3 -8 -7 -3
-11 10 -4 17 -3 21 5 13 5 -5 8 -16 6 -23z m-18 0 c0 -6 -4 -7 -10 -4 -5 3
-10 11 -10 16 0 6 5 7 10 4 6 -3 10 -11 10 -16z m-2623 -19 c-1 -11 -7 -22
-14 -24 -16 -7 -16 -1 -1 24 16 25 17 25 15 0z m2340 -22 c-3 -8 -6 -5 -6 6
-1 11 2 17 5 13 3 -3 4 -12 1 -19z m37 -4 c3 -8 2 -12 -4 -9 -6 3 -10 10 -10
16 0 14 7 11 14 -7z m-474 -69 c0 -5 -5 -3 -10 5 -5 8 -10 20 -10 25 0 6 5 3
10 -5 5 -8 10 -19 10 -25z m965 16 c6 -11 -29 -34 -38 -25 -3 3 -3 12 0 20 6
16 29 19 38 5z m-2932 -62 c-5 -19 -40 -32 -115 -44 -21 -3 -37 -11 -35 -17 1
-7 -2 -13 -8 -13 -22 -2 -60 -18 -67 -29 -9 -14 -20 -2 -13 16 6 14 65 54 65
44 0 -7 75 20 114 41 23 13 27 13 22 2 -4 -8 0 -5 8 5 9 11 16 25 16 30 0 6 4
5 9 -3 5 -7 6 -22 4 -32z m1984 4 c-3 -3 -11 -2 -17 2 -8 5 -7 11 2 22 12 15
13 14 16 -1 2 -10 1 -20 -1 -23z m25 15 c-7 -7 -12 -8 -12 -2 0 14 12 26 19
19 2 -3 -1 -11 -7 -17z m-58 -84 c3 -8 2 -12 -4 -9 -6 3 -10 10 -10 16 0 14 7
11 14 -7z m-2117 -59 c-13 -10 -15 -14 -5 -18 7 -2 1 -4 -14 -4 -35 -1 -35 8
0 28 31 18 46 14 19 -6z m2223 -25 c0 -5 -2 -10 -4 -10 -3 0 -8 5 -11 10 -3 6
-1 10 4 10 6 0 11 -4 11 -10z m-2490 -460 c0 -5 -5 -10 -11 -10 -5 0 -7 5 -4
10 3 6 8 10 11 10 2 0 4 -4 4 -10z m2300 -15 c0 6 5 2 11 -8 5 -9 7 -22 4 -27
-7 -12 -26 -14 -24 -2 3 19 -2 33 -11 27 -6 -3 -7 1 -3 10 5 13 7 14 14 3 5
-7 9 -8 9 -3z m-2317 -24 c8 -8 -8 -61 -19 -61 -3 0 -4 9 -1 21 4 16 2 20 -12
16 -12 -3 -17 3 -19 20 -2 21 1 23 21 18 12 -4 26 -11 30 -14z m2377 -45 c4
-20 4 -39 -1 -42 -5 -3 -9 -10 -9 -15 0 -6 4 -8 9 -5 5 3 12 -16 16 -44 4 -27
10 -49 13 -49 21 3 31 -3 37 -22 6 -17 9 -19 17 -8 7 10 8 8 3 -8 -3 -13 -6
-41 -7 -63 0 -27 -4 -38 -12 -33 -6 4 -5 -1 3 -10 7 -9 9 -17 3 -17 -5 0 -8
-8 -6 -17 3 -10 -2 -27 -10 -38 -12 -17 -17 -18 -28 -6 -11 12 -10 13 5 8 15
-6 16 -4 6 14 -6 11 -7 28 -3 37 10 24 15 44 17 67 2 15 -3 19 -20 18 -16 -2
-21 3 -20 16 1 18 3 18 29 5 15 -8 28 -10 28 -5 0 5 -10 11 -21 14 -16 4 -20
11 -16 27 4 18 3 19 -9 9 -8 -6 -17 -9 -21 -5 -3 3 -2 6 4 6 5 0 8 13 5 30 -2
16 -8 27 -13 24 -5 -3 -7 -9 -5 -13 3 -4 0 -13 -5 -21 -9 -13 -10 -13 -6 0 2
8 -5 25 -16 38 -11 12 -16 22 -10 22 6 0 13 -6 16 -12 2 -7 8 -9 13 -5 12 11
-20 63 -37 59 -11 -2 -10 1 2 10 9 7 14 18 12 25 -5 14 16 57 24 50 2 -3 8
-22 13 -41z m-2407 -46 c-5 -19 -23 -29 -23 -12 0 7 20 32 26 32 1 0 0 -9 -3
-20z m2475 -5 c-3 -3 -9 2 -12 12 -6 14 -5 15 5 6 7 -7 10 -15 7 -18z m22 -45
c0 -5 -4 -10 -10 -10 -5 0 -10 5 -10 10 0 6 5 10 10 10 6 0 10 -4 10 -10z
m205 0 c3 -5 1 -10 -4 -10 -6 0 -11 5 -11 10 0 6 2 10 4 10 3 0 8 -4 11 -10z
m-189 -25 c-3 -9 0 -15 9 -15 8 0 15 -4 15 -10 0 -5 -4 -10 -9 -10 -5 0 -7
-10 -4 -22 3 -14 -4 -8 -16 15 -21 37 -21 57 1 57 5 0 8 -7 4 -15z m211 -20
c0 -8 -4 -12 -9 -9 -4 3 -8 -1 -8 -9 0 -16 31 -18 42 -2 5 7 8 7 9 0 4 -48 8
-58 20 -66 8 -5 23 -7 34 -5 25 6 50 -8 41 -23 -4 -6 -2 -11 4 -11 14 0 34
-21 38 -40 2 -8 8 -17 13 -18 6 -3 5 -10 -2 -19 -7 -8 -8 -13 -3 -11 14 5 13
-15 -3 -38 -14 -21 -8 -58 7 -49 5 3 12 -1 17 -8 5 -10 15 -12 28 -6 17 6 17
8 3 8 -10 1 -18 6 -18 12 0 6 9 8 20 4 16 -5 20 -2 21 17 0 13 3 18 5 11 3 -7
12 -9 21 -6 10 4 6 -8 -13 -36 -15 -23 -29 -53 -30 -67 -2 -23 -1 -24 14 -12
15 11 15 11 5 -3 -7 -9 -9 -20 -5 -24 4 -5 2 -5 -5 -1 -6 3 -14 2 -17 -3 -3
-5 2 -12 12 -16 16 -6 16 -7 0 -16 -22 -12 -23 -29 -4 -29 8 0 18 -5 22 -12 5
-8 2 -9 -11 -4 -15 5 -16 4 -5 -9 7 -8 16 -12 21 -9 5 3 9 0 9 -5 0 -6 12 -11
26 -11 14 0 23 -4 20 -9 -3 -5 8 -11 25 -15 21 -4 28 -10 23 -18 -4 -7 -3 -10
1 -5 5 4 17 -1 27 -10 18 -16 18 -16 12 0 -3 10 -1 17 5 17 6 0 8 6 5 14 -3 8
-1 17 5 21 7 4 8 0 4 -11 -5 -13 -3 -16 10 -11 9 3 17 2 17 -4 0 -6 7 -6 20 1
16 8 26 7 42 -5 13 -8 17 -15 10 -15 -6 0 -12 -4 -12 -10 0 -5 6 -7 13 -4 8 3
19 -5 25 -18 12 -23 12 -23 6 2 l-7 25 23 -20 c14 -12 20 -14 15 -5 -6 11 -5
12 4 4 8 -8 -1 -32 -36 -97 l-48 -87 -126 0 -127 0 -13 -32 c-11 -25 -14 -87
-13 -248 0 -205 6 -312 40 -675 13 -148 102 -795 124 -910 17 -90 49 -367 59
-515 21 -307 32 -663 21 -670 -13 -8 -16 -45 -3 -43 16 3 13 -38 -4 -59 -11
-12 -12 -18 -2 -24 8 -4 10 -3 5 4 -4 7 -2 12 3 12 13 0 13 -3 5 -24 -3 -9
-11 -13 -17 -9 -6 3 -7 1 -3 -5 4 -6 13 -9 21 -5 11 4 14 -1 11 -18 -2 -13 -8
-23 -14 -22 -5 1 -8 -7 -5 -17 3 -11 10 -20 17 -20 8 0 8 -2 0 -8 -14 -9 -37
-53 -27 -51 30 5 35 -2 18 -27 -15 -24 -15 -28 -1 -42 14 -14 14 -17 -2 -28
-16 -13 -16 -13 1 -14 20 0 23 -15 5 -27 -8 -5 -13 -29 -13 -60 0 -28 3 -49 7
-47 13 8 0 -137 -14 -154 -11 -13 -11 -14 1 -7 11 6 12 2 6 -21 -4 -16 -8 -38
-9 -49 -1 -11 -5 -23 -11 -27 -6 -5 -6 -11 2 -16 7 -4 10 -16 9 -27 -2 -11 1
-25 6 -31 5 -8 3 -18 -7 -28 -15 -15 -15 -16 0 -16 11 0 15 -6 10 -19 -4 -15
1 -20 25 -25 18 -3 29 -10 25 -16 -3 -5 -8 -19 -10 -30 -5 -25 22 -27 27 -2 5
21 28 -150 28 -206 0 -23 -5 -42 -10 -42 -6 0 -13 -8 -17 -17 -24 -73 -36 -89
-80 -107 -30 -13 -41 -21 -32 -27 13 -8 22 -39 11 -39 -4 0 -13 9 -19 19 -12
19 -14 18 -85 -10 -40 -17 -75 -35 -79 -41 -4 -6 -12 -7 -18 -4 -6 4 -11 3
-11 -1 0 -5 -24 -18 -52 -28 -51 -19 -60 -21 -103 -28 -11 -2 -31 -10 -45 -17
-14 -8 -27 -15 -30 -15 -3 -1 -16 -5 -30 -9 -14 -4 -36 -8 -50 -10 -14 -2 -38
-9 -54 -15 -16 -6 -52 -14 -80 -16 -48 -4 -50 -3 -31 12 19 14 16 15 -34 9
-63 -8 -71 -12 -71 -32 0 -8 -4 -14 -10 -14 -5 0 -10 8 -10 18 0 10 -3 13 -8
7 -4 -6 -29 -10 -57 -10 -27 0 -54 -2 -60 -4 -5 -3 -21 -6 -35 -6 -14 0 -29
-3 -35 -6 -14 -8 -190 -4 -248 6 -29 4 -59 17 -74 31 -14 13 -22 24 -17 24 5
0 8 21 7 47 -1 26 1 51 5 57 3 6 5 27 3 48 -1 20 3 46 9 59 10 17 9 20 0 14
-10 -6 -11 -1 -6 21 12 53 13 73 5 68 -5 -3 -9 0 -9 5 0 6 5 11 12 11 6 0 3 7
-8 16 -10 8 -14 13 -7 10 16 -8 26 11 17 32 -10 25 -14 72 -5 72 5 0 7 18 5
40 -2 24 1 38 7 35 5 -4 9 -2 9 4 0 5 -5 13 -10 16 -7 4 -7 11 -2 18 15 19 20
66 8 72 -7 3 -7 7 2 11 10 5 10 9 1 20 -7 9 -8 14 -1 14 6 0 9 11 6 24 -2 14
0 35 5 49 6 16 6 28 -2 36 -8 8 -6 15 9 27 10 8 13 12 6 9 -10 -5 -12 2 -7 32
4 21 9 46 12 56 2 9 -1 17 -7 17 -6 0 -8 5 -5 10 4 6 10 8 15 5 5 -3 7 9 4 27
-3 18 -5 44 -4 58 1 14 3 33 3 43 1 9 4 17 7 17 3 0 5 17 4 38 0 20 4 40 10
44 7 5 3 8 -9 8 -19 1 -19 1 -2 14 13 10 16 23 13 50 -3 20 -1 36 4 36 5 0 5
13 0 29 -6 22 -4 33 5 41 13 11 13 39 0 59 -3 5 -1 12 5 16 6 4 8 10 5 15 -3
5 1 20 10 34 11 16 13 26 6 31 -6 3 -11 14 -11 23 0 13 2 14 9 4 6 -10 10 -7
13 12 3 14 2 23 -3 21 -4 -3 -11 0 -15 6 -4 8 -3 9 4 5 6 -3 16 3 22 14 7 13
7 20 0 20 -14 0 -13 33 2 48 9 9 9 12 -3 12 -12 0 -12 2 0 9 9 6 14 30 14 72
0 35 5 67 11 71 7 5 3 8 -9 8 -11 0 -15 4 -10 8 13 10 14 62 1 62 -6 0 -4 5 4
10 12 7 13 15 3 39 -6 16 -8 32 -5 35 7 8 7 74 0 81 -7 8 0 143 9 169 3 12 7
28 8 36 1 8 10 45 18 81 18 73 27 113 32 144 5 26 36 143 74 275 16 58 39 139
51 180 12 41 34 113 50 160 35 104 119 430 154 600 24 113 116 591 132 683 3
20 7 37 8 37 0 0 17 -4 36 -10 32 -9 33 -8 16 5 -19 15 -19 15 5 15 23 1 23 1
5 15 -11 8 -17 15 -13 15 4 0 3 10 -4 21 -8 17 -8 20 1 14 9 -5 10 -1 5 16 -4
13 -12 26 -16 27 -5 2 -9 41 -9 88 0 76 -2 85 -23 99 -13 8 -36 16 -50 17 -18
2 -26 7 -23 15 3 7 1 13 -4 13 -6 0 -10 -4 -10 -9 0 -12 -49 -1 -57 13 -3 6
-3 8 2 4 4 -4 17 -2 29 4 11 7 24 11 29 10 6 -2 8 6 11 48 1 17 36 27 36 10 0
-6 -4 -8 -10 -5 -12 8 -13 -5 -1 -24 13 -21 25 30 16 66 -5 23 -4 25 10 13 13
-11 15 -10 9 4 -3 9 -1 16 5 16 6 0 11 7 11 15 0 8 6 15 13 15 6 0 1 6 -13 13
-17 9 -24 20 -23 35 2 13 -4 25 -12 28 -17 7 -20 40 -5 49 6 3 10 11 10 17 0
7 -6 6 -17 -2 -10 -7 -2 2 17 20 31 29 32 32 12 27 -22 -5 -23 -3 -17 21 3 15
17 51 31 81 18 41 21 57 13 67 -8 10 -8 14 0 14 6 0 11 7 11 15 0 8 7 15 15
15 9 0 12 6 8 16 -5 12 0 12 28 -4 21 -11 42 -16 53 -12 18 6 18 7 3 13 -10 4
-17 2 -17 -5 0 -13 -29 22 -30 36 0 4 11 1 25 -8 14 -9 25 -13 25 -10 0 4 8 1
18 -7 9 -8 31 -22 48 -31 26 -14 31 -15 31 -3 0 13 -10 19 -28 17 -4 -1 -15 8
-24 18 -16 18 -17 20 -2 20 10 0 17 5 17 10 0 6 4 10 8 10 5 0 9 -7 9 -15z
m68 -66 c11 -16 1 -19 -13 -3 -7 8 -8 14 -3 14 5 0 13 -5 16 -11z m2258 -19
c3 -11 1 -18 -4 -14 -5 3 -9 12 -9 20 0 20 7 17 13 -6z m-2606 -47 c-9 -28
-13 -32 -15 -18 -2 11 -8 25 -14 32 -8 10 0 16 34 22 3 0 1 -16 -5 -36z
m-3211 -190 c-8 -8 -85 74 -86 92 0 5 21 -11 47 -37 26 -26 44 -51 39 -55z
m3714 51 c0 -4 -6 -4 -14 -1 -7 3 -19 0 -25 -6 -12 -12 -14 -7 -5 17 5 12 10
13 25 5 10 -5 19 -12 19 -15z m-3820 -24 c0 -8 -32 -21 -62 -25 -20 -3 -23 6
-8 21 13 13 70 16 70 4z m43 -40 c10 -17 15 -35 11 -42 -4 -7 -3 -8 4 -4 7 4
12 3 12 -2 0 -34 -73 -10 -78 26 -2 12 -8 20 -13 17 -5 -4 -9 -2 -9 4 0 11 29
30 45 31 6 0 19 -14 28 -30z m3887 16 c0 -3 -4 -8 -10 -11 -5 -3 -10 -1 -10 4
0 6 5 11 10 11 6 0 10 -2 10 -4z m-70 -36 c0 -5 -2 -10 -4 -10 -3 0 -8 5 -11
10 -3 6 -1 10 4 10 6 0 11 -4 11 -10z m-490 -90 c0 -5 -5 -10 -11 -10 -5 0 -7
5 -4 10 3 6 8 10 11 10 2 0 4 -4 4 -10z m-2973 -6 c-3 -4 -2 -15 4 -25 8 -16
6 -19 -15 -17 -24 2 -25 24 -2 40 13 9 22 10 13 2z m-139 -34 c27 -36 27 -36
2 -36 -16 0 -40 37 -40 62 0 13 20 0 38 -26z m484 -10 c9 -17 14 -30 11 -30
-10 0 -53 42 -53 52 0 19 26 5 42 -22z m3385 -33 l-13 -25 -25 20 c-14 12 -17
18 -7 15 9 -3 24 0 35 8 24 18 26 13 10 -18z m-832 -17 c3 -5 1 -10 -4 -10 -6
0 -11 5 -11 10 0 6 2 10 4 10 3 0 8 -4 11 -10z m15 -24 c0 -3 -4 -8 -10 -11
-5 -3 -10 -1 -10 4 0 6 5 11 10 11 6 0 10 -2 10 -4z m2945 -396 c3 -5 1 -10
-4 -10 -6 0 -11 5 -11 10 0 6 2 10 4 10 3 0 8 -4 11 -10z m-2155 -30 c24 -24
26 -57 3 -82 -31 -34 -78 -13 -89 39 -5 25 -1 34 17 47 31 21 45 20 69 -4z
m2184 -56 c3 -8 9 -13 13 -11 6 4 8 -52 4 -82 -2 -14 -30 38 -31 56 0 12 -4
25 -10 28 -15 9 -12 25 4 25 8 0 17 -7 20 -16z m-10 -106 c-4 -34 -4 -34 -15
-15 -5 9 -7 22 -4 27 11 18 22 11 19 -12z m-134 -188 c13 -9 11 -14 -13 -35
-33 -29 -40 -30 -57 -10 -17 20 -6 42 22 48 13 2 25 5 28 5 3 1 12 -3 20 -8z
m50 -30 c0 -5 -5 -10 -11 -10 -5 0 -7 5 -4 10 3 6 8 10 11 10 2 0 4 -4 4 -10z
m-1903 -1112 c27 -25 30 -69 7 -88 -22 -19 -70 -16 -94 5 -27 24 -26 70 2 89
31 22 58 20 85 -6z m3378 -677 c3 -5 1 -12 -5 -16 -5 -3 -10 1 -10 9 0 18 6
21 15 7z m-1648 -858 c-3 -10 -5 -4 -5 12 0 17 2 24 5 18 2 -7 2 -21 0 -30z
m-5100 -65 c79 -61 81 -68 40 -147 -74 -141 -299 -653 -507 -1151 -65 -154
-60 -147 -76 -119 -7 13 -11 27 -8 30 2 3 -12 15 -31 25 -19 10 -35 26 -35 35
0 40 91 285 337 904 131 332 193 465 215 465 6 0 35 -19 65 -42z m3531 -71 c4
-18 3 -18 -25 0 -22 14 -25 14 -16 2 11 -13 10 -16 -5 -16 -20 0 -44 22 -34
31 3 4 22 6 42 4 24 -2 36 -8 38 -21z m1722 -12 c-14 -7 -43 -16 -65 -19 -36
-5 -35 -4 15 14 65 22 85 25 50 5z m-2080 -11 c0 -8 -5 -12 -10 -9 -6 4 -8 11
-5 16 9 14 15 11 15 -7z m273 -27 c-9 -16 -26 12 -18 30 7 17 8 17 15 -2 4
-11 5 -24 3 -28z m-289 -1027 c-10 -4 -21 -6 -24 -3 -8 7 24 22 34 16 5 -4 1
-10 -10 -13z m6 -19 c0 -5 -7 -12 -16 -15 -14 -5 -15 -4 -4 9 14 17 20 19 20
6z m-82 -26 c-3 -3 -9 2 -12 12 -6 14 -5 15 5 6 7 -7 10 -15 7 -18z m77 -55
c3 -5 1 -10 -4 -10 -6 0 -11 5 -11 10 0 6 2 10 4 10 3 0 8 -4 11 -10z m15 -30
c0 -5 -2 -10 -4 -10 -3 0 -8 5 -11 10 -3 6 -1 10 4 10 6 0 11 -4 11 -10z
m-770 -90 c0 -5 -15 -10 -32 -9 -28 0 -30 2 -13 9 28 12 45 12 45 0z m-160
-35 c-7 -8 -16 -15 -21 -15 -5 0 -6 7 -3 15 4 8 13 15 21 15 13 0 13 -3 3 -15z
m-40 -5 c0 -5 -7 -10 -15 -10 -8 0 -15 5 -15 10 0 6 7 10 15 10 8 0 15 -4 15
-10z m-40 -4 c0 -2 -9 -6 -20 -9 -11 -3 -20 -1 -20 4 0 5 9 9 20 9 11 0 20 -2
20 -4z m-63 -24 c-10 -10 -17 -29 -18 -43 -1 -23 -1 -23 -14 6 -15 34 -5 55
28 55 19 0 19 -1 4 -18z m146 -50 c3 7 4 -4 2 -26 -2 -28 0 -35 8 -27 6 6 15
11 21 11 5 0 6 -3 3 -7 -4 -3 -2 -12 4 -20 10 -11 15 -11 35 2 20 13 24 13 31
1 6 -11 20 -12 62 -5 82 13 86 28 7 26 -36 -1 -66 1 -66 6 0 4 35 8 78 8 86 2
120 4 141 10 7 2 16 -1 18 -8 3 -7 -8 -15 -24 -19 -15 -4 -32 -10 -38 -14 -5
-4 -45 -15 -88 -24 -86 -17 -97 -22 -97 -38 0 -7 -10 -22 -22 -35 -43 -46
-132 -20 -123 35 1 9 -2 19 -6 22 -5 4 -11 19 -15 35 -7 37 29 83 51 65 10 -8
14 -7 18 2z m60 -15 c25 -27 18 -39 -13 -21 -16 10 -30 22 -30 26 0 13 30 9
43 -5z m1269 -128 c16 -9 18 -13 7 -19 -14 -9 -49 5 -49 20 0 13 17 13 42 -1z
m-1452 -68 c-1 -13 -29 45 -29 59 0 8 6 0 14 -19 8 -18 15 -36 15 -40z m1420
13 c0 -8 -4 -12 -10 -9 -5 3 -10 10 -10 16 0 5 5 9 10 9 6 0 10 -7 10 -16z
m-1384 -39 c9 -8 12 -15 7 -15 -4 0 -1 -5 7 -11 12 -8 12 -10 1 -7 -15 4 -48
48 -37 48 4 0 14 -7 22 -15z m39 -54 c-3 -5 -1 -12 5 -16 5 -3 10 -14 10 -24
0 -10 10 -26 23 -34 19 -14 19 -16 4 -16 -12 -1 -24 14 -37 45 -23 53 -23 54
-9 54 5 0 8 -4 4 -9z m-1706 -1107 c14 -12 -19 -1 -35 12 -18 14 -18 14 6 3
14 -6 27 -13 29 -15z m166 -69 c71 -30 133 -59 138 -64 5 -5 -53 17 -129 50
-126 54 -156 69 -142 69 2 0 62 -25 133 -55z m3755 -49 c0 -2 -8 -10 -17 -17
-16 -13 -17 -12 -4 4 13 16 21 21 21 13z m-760 -136 c8 -5 12 -12 9 -15 -8 -8
-39 5 -39 16 0 11 11 11 30 -1z m50 -420 c0 -5 -6 -10 -14 -10 -8 0 -18 5 -21
10 -3 6 3 10 14 10 12 0 21 -4 21 -10z"/>
<path d="M6840 10811 c0 -5 7 -11 15 -15 8 -3 15 -1 15 3 0 5 -7 11 -15 15 -8
3 -15 1 -15 -3z"/>
<path d="M6165 10270 c3 -5 8 -10 11 -10 2 0 4 5 4 10 0 6 -5 10 -11 10 -5 0
-7 -4 -4 -10z"/>
<path d="M6390 10259 c0 -5 5 -7 10 -4 6 3 10 8 10 11 0 2 -4 4 -10 4 -5 0
-10 -5 -10 -11z"/>
<path d="M6218 10243 c7 -3 16 -2 19 1 4 3 -2 6 -13 5 -11 0 -14 -3 -6 -6z"/>
<path d="M6185 9961 c-6 -11 13 -26 22 -17 4 3 1 6 -6 6 -7 0 -9 5 -6 10 3 6
4 10 1 10 -3 0 -7 -4 -11 -9z"/>
<path d="M5915 9890 c3 -5 8 -10 11 -10 2 0 4 5 4 10 0 6 -5 10 -11 10 -5 0
-7 -4 -4 -10z"/>
<path d="M5915 9850 c-3 -6 1 -7 9 -4 18 7 21 14 7 14 -6 0 -13 -4 -16 -10z"/>
<path d="M5915 9810 c3 -5 8 -10 11 -10 2 0 4 5 4 10 0 6 -5 10 -11 10 -5 0
-7 -4 -4 -10z"/>
<path d="M6245 9670 c-3 -5 -2 -10 4 -10 5 0 13 5 16 10 3 6 2 10 -4 10 -5 0
-13 -4 -16 -10z"/>
<path d="M6099 9583 c-46 -23 -89 -43 -96 -43 -6 0 -15 -5 -19 -12 -5 -8 -2
-9 10 -5 10 4 15 3 11 -3 -3 -6 -12 -10 -19 -10 -26 0 -54 -104 -32 -117 5 -4
6 -1 1 7 -5 9 -2 10 14 5 15 -4 31 2 58 24 21 17 48 32 61 34 12 2 28 9 34 15
7 7 18 12 25 12 7 0 13 5 13 11 0 6 6 9 14 6 8 -3 16 2 19 14 4 15 2 19 -9 15
-22 -8 -17 28 6 49 23 21 26 42 7 42 -7 0 -51 -20 -98 -44z"/>
<path d="M6860 8840 c0 -5 5 -10 11 -10 5 0 7 5 4 10 -3 6 -8 10 -11 10 -2 0
-4 -4 -4 -10z"/>
<path d="M6025 8820 c3 -5 11 -10 16 -10 6 0 7 5 4 10 -3 6 -11 10 -16 10 -6
0 -7 -4 -4 -10z"/>
<path d="M6190 8641 c0 -6 4 -13 10 -16 6 -3 7 1 4 9 -7 18 -14 21 -14 7z"/>
<path d="M6920 9854 c0 -7 67 -34 82 -34 7 1 0 8 -15 16 -30 16 -67 26 -67 18z"/>
<path d="M6076 7952 c-3 -6 -1 -14 5 -17 14 -9 20 -2 10 14 -6 8 -11 9 -15 3z"/>
<path d="M6310 7706 c0 -2 7 -7 16 -10 8 -3 12 -2 9 4 -6 10 -25 14 -25 6z"/>
<path d="M5964 7395 c-3 -8 -4 -20 -2 -27 3 -7 7 -1 10 15 6 29 1 36 -8 12z"/>
<path d="M6650 7380 c0 -5 5 -10 10 -10 6 0 10 5 10 10 0 6 -4 10 -10 10 -5 0
-10 -4 -10 -10z"/>
<path d="M6715 7360 c3 -5 8 -10 11 -10 2 0 4 5 4 10 0 6 -5 10 -11 10 -5 0
-7 -4 -4 -10z"/>
<path d="M6701 7262 c-15 -31 -14 -35 3 -20 8 7 12 16 9 21 -4 6 12 11 30 8 4
0 7 3 7 8 0 19 -39 6 -49 -17z"/>
<path d="M6660 7240 c0 -5 5 -10 11 -10 5 0 7 5 4 10 -3 6 -8 10 -11 10 -2 0
-4 -4 -4 -10z"/>
<path d="M6715 6980 c6 -18 3 -20 -21 -14 -20 5 -26 4 -22 -7 3 -8 16 -14 29
-14 19 0 25 6 27 28 2 15 -2 27 -8 27 -7 0 -9 -8 -5 -20z"/>
<path d="M6880 5512 c0 -12 19 -26 26 -19 2 2 -2 10 -11 17 -9 8 -15 8 -15 2z"/>
<path d="M6852 5475 c4 -24 40 -32 56 -12 10 12 7 14 -15 11 -15 -1 -31 3 -36
9 -5 8 -7 5 -5 -8z"/>
<path d="M5745 2401 c-8 -7 -6 -21 3 -21 5 0 17 6 28 14 18 14 18 15 -4 13
-13 -1 -25 -3 -27 -6z"/>
<path d="M5799 2352 c-13 -15 -12 -16 3 -4 14 11 17 10 21 -5 4 -16 5 -16 6
-1 2 25 -15 30 -30 10z"/>
<path d="M5862 2328 c-11 -29 -9 -49 3 -36 10 10 24 68 16 68 -3 0 -12 -14
-19 -32z"/>
<path d="M5769 2348 c-10 -36 -3 -48 34 -61 27 -10 21 28 -8 47 -14 9 -25 15
-26 14z"/>
<path d="M5830 2290 c0 -6 -10 -15 -22 -20 -21 -9 -20 -9 6 -6 31 3 45 19 27
31 -6 3 -11 1 -11 -5z"/>
<path d="M6460 11160 c0 -5 4 -10 9 -10 6 0 13 5 16 10 3 6 -1 10 -9 10 -9 0
-16 -4 -16 -10z"/>
<path d="M4382 9700 c0 -14 2 -19 5 -12 2 6 2 18 0 25 -3 6 -5 1 -5 -13z"/>
<path d="M3267 8903 c-5 -7 -5 -13 -2 -13 3 0 -3 -10 -15 -22 -11 -12 -20 -29
-20 -39 0 -16 -55 -93 -62 -87 -4 4 -32 -19 -60 -49 -12 -13 -32 -23 -45 -23
-16 0 -23 -6 -23 -18 0 -10 -9 -28 -20 -39 -16 -18 -17 -22 -4 -27 41 -16 65
-5 133 62 81 81 134 174 129 230 -2 23 -6 32 -11 25z"/>
<path d="M3840 8849 c0 -5 5 -7 10 -4 6 3 10 8 10 11 0 2 -4 4 -10 4 -5 0 -10
-5 -10 -11z"/>
<path d="M3605 8360 c-3 -5 -2 -10 4 -10 5 0 13 5 16 10 3 6 2 10 -4 10 -5 0
-13 -4 -16 -10z"/>
<path d="M8610 8333 c0 -16 5 -35 10 -43 7 -11 10 -4 10 28 0 23 -4 42 -10 42
-5 0 -10 -12 -10 -27z"/>
<path d="M8612 8259 c2 -6 8 -10 13 -10 5 0 11 4 13 10 2 6 -4 11 -13 11 -9 0
-15 -5 -13 -11z"/>
<path d="M3084 8018 l-29 -33 35 30 c19 17 37 31 39 33 2 1 0 2 -5 2 -6 0 -23
-15 -40 -32z"/>
<path d="M3018 7923 c-16 -2 -28 -9 -28 -14 0 -15 36 -10 50 6 7 8 11 14 9 14
-2 -1 -16 -4 -31 -6z"/>
<path d="M2277 7903 c3 -7 9 -10 14 -7 14 8 11 21 -5 21 -8 0 -12 -6 -9 -14z"/>
<path d="M2770 7870 c-9 -6 -10 -10 -3 -10 6 0 15 5 18 10 8 12 4 12 -15 0z"/>
<path d="M1264 7848 c-4 -6 -2 -14 4 -16 16 -5 133 -83 150 -99 19 -19 161
-85 173 -81 5 2 -19 22 -53 44 -196 128 -252 164 -259 164 -4 0 -11 -5 -15
-12z"/>
<path d="M2810 7850 c0 -5 4 -10 9 -10 6 0 13 5 16 10 3 6 -1 10 -9 10 -9 0
-16 -4 -16 -10z"/>
<path d="M8705 7550 c-3 -5 -1 -10 4 -10 6 0 11 5 11 10 0 6 -2 10 -4 10 -3 0
-8 -4 -11 -10z"/>
<path d="M8800 7490 c-5 -16 -4 -70 2 -70 14 0 17 17 8 46 -4 16 -9 27 -10 24z"/>
<path d="M1976 7311 c-54 -15 -88 -41 -53 -41 26 0 47 12 41 22 -4 6 2 8 15 3
11 -3 26 -3 33 1 13 8 19 9 77 12 19 1 32 4 30 6 -12 13 -91 11 -143 -3z"/>
<path d="M8805 7300 c3 -5 8 -10 11 -10 2 0 4 5 4 10 0 6 -5 10 -11 10 -5 0
-7 -4 -4 -10z"/>
<path d="M1875 7279 c-4 -6 -4 -13 -1 -16 3 -4 6 -1 6 6 0 7 5 9 10 6 6 -3 10
-1 10 4 0 14 -17 14 -25 0z"/>
<path d="M1846 7273 c-3 -4 -17 -8 -29 -10 -20 -3 -107 -22 -262 -58 -33 -8
-91 -19 -130 -25 -38 -6 -88 -15 -110 -20 -22 -6 -56 -12 -75 -14 -19 -2 -43
-7 -52 -11 -10 -4 -25 -4 -33 -1 -9 3 -18 -1 -21 -8 -3 -8 -15 -16 -26 -19
-11 -3 -18 -10 -14 -15 3 -5 40 -3 88 5 46 7 110 16 143 19 60 7 90 11 90 14
0 1 14 3 31 5 17 3 44 10 60 16 16 6 49 13 73 16 24 2 52 8 62 14 11 5 19 7
19 3 0 -3 6 -2 13 3 6 5 19 9 27 8 8 0 17 3 20 7 3 3 17 8 30 10 36 6 98 37
104 54 6 15 3 18 -8 7z"/>
<path d="M2089 7223 c-13 -16 -12 -17 4 -4 9 7 17 15 17 17 0 8 -8 3 -21 -13z"/>
<path d="M1953 7052 c-42 -48 -59 -73 -53 -82 7 -11 11 -11 24 -1 9 8 16 10
16 5 0 -13 34 45 58 99 12 26 20 47 19 47 -1 0 -30 -31 -64 -68z"/>
<path d="M9210 7099 c0 -5 -7 -9 -16 -9 -10 0 -14 -6 -11 -14 5 -11 0 -13 -25
-5 -47 13 -53 4 -33 -56 4 -13 1 -12 -9 5 l-14 25 -12 -30 c-37 -98 8 -193
166 -350 63 -62 114 -118 114 -125 0 -8 8 -10 23 -6 12 3 59 14 105 23 78 15
82 18 82 42 0 15 7 36 15 47 8 12 11 25 7 29 -4 5 -2 6 3 2 6 -3 18 1 28 8 17
12 17 14 -4 34 -12 11 -26 18 -31 15 -5 -3 -12 4 -15 16 -6 22 -7 22 -20 5
-12 -17 -13 -17 -13 -2 0 9 -3 17 -7 16 -23 -3 -53 16 -63 42 -7 16 -16 27
-20 24 -4 -3 -10 2 -14 10 -3 8 -10 15 -16 15 -20 0 -80 52 -80 69 0 14 -2 14
-10 1 -10 -16 -13 -3 -12 72 0 32 -4 38 -29 47 -17 6 -29 17 -30 28 0 16 -1
16 -9 -2 -8 -19 -9 -19 -9 1 -1 21 -41 43 -41 23z m150 -302 c14 -12 40 -40
59 -61 l34 -39 -48 5 c-29 4 -52 12 -57 22 -5 9 -14 16 -19 16 -6 0 -7 -5 -3
-12 4 -7 -7 -2 -24 11 -29 20 -36 32 -33 53 0 4 -10 10 -24 14 -14 3 -23 10
-20 14 3 5 2 10 -2 12 -16 6 -63 77 -63 93 0 9 -5 26 -11 37 -9 17 119 -83
211 -165z"/>
<path d="M2385 6960 c-3 -5 -1 -10 4 -10 6 0 11 5 11 10 0 6 -2 10 -4 10 -3 0
-8 -4 -11 -10z"/>
<path d="M814 6875 c-29 -32 -30 -35 -11 -41 11 -3 23 -1 27 6 5 8 10 9 14 2
4 -7 17 -7 37 -2 17 5 34 8 38 7 10 -3 71 25 71 32 0 7 -114 32 -136 30 -5 0
-23 -16 -40 -34z"/>
<path d="M1810 6893 c0 -10 5 -25 10 -33 7 -11 10 -7 10 18 0 17 -4 32 -10 32
-5 0 -10 -8 -10 -17z"/>
<path d="M1000 6880 c0 -5 5 -10 11 -10 5 0 7 5 4 10 -3 6 -8 10 -11 10 -2 0
-4 -4 -4 -10z"/>
<path d="M10047 6574 c-3 -4 0 -19 8 -35 8 -15 15 -41 15 -58 0 -16 4 -31 10
-33 12 -4 41 -135 33 -154 -3 -8 -12 -14 -20 -14 -9 0 -13 -6 -9 -15 3 -9 -3
-19 -16 -26 -17 -9 -18 -13 -7 -20 8 -5 25 -9 39 -9 22 0 26 -5 28 -32 4 -53
-51 -147 -86 -148 -13 0 -26 -9 -64 -43 -12 -12 -29 -17 -44 -14 -13 2 -21 0
-18 -4 3 -5 1 -9 -5 -9 -5 0 -12 6 -14 13 -4 9 -6 9 -6 -1 -1 -7 -5 -10 -11
-7 -5 3 -10 1 -10 -4 0 -6 -7 -11 -15 -11 -8 0 -15 -6 -15 -12 0 -10 -2 -10
-8 0 -7 10 -15 7 -37 -10 l-28 -22 6 42 c6 34 4 40 -7 36 -8 -3 -17 -12 -20
-20 -3 -9 -10 -13 -15 -9 -5 3 -12 1 -16 -5 -7 -12 -60 -40 -83 -45 -10 -2
-25 -6 -34 -10 -11 -4 -18 -3 -18 5 0 6 -4 8 -10 5 -14 -9 -12 19 2 33 7 7 9
12 4 12 -13 0 -35 -27 -28 -35 4 -5 1 -5 -6 -1 -7 5 -11 14 -8 22 4 12 2 12
-14 4 -17 -9 -20 -8 -20 7 0 23 -31 51 -50 45 -21 -7 -40 -35 -35 -50 7 -20
-24 -26 -44 -8 -14 13 -20 14 -23 4 -15 -38 47 -98 101 -98 25 0 31 -4 31 -21
0 -11 7 -44 14 -72 8 -29 20 -71 26 -95 12 -46 30 -48 30 -4 0 21 2 24 10 12
5 -8 7 -25 3 -37 -3 -13 -1 -23 5 -23 10 0 22 46 22 86 0 12 5 26 11 30 16 9
30 -17 24 -43 -6 -28 3 -53 21 -53 8 0 14 -5 14 -11 0 -6 6 -9 13 -6 6 2 32
-12 57 -32 25 -20 56 -42 70 -49 14 -7 48 -33 75 -58 76 -68 132 -111 115 -89
-7 11 -19 25 -25 30 -36 34 -87 109 -90 132 -3 15 -6 35 -8 45 -4 23 -68 99
-77 93 -10 -6 -60 15 -79 33 -11 11 -9 12 10 8 36 -7 59 -17 59 -27 0 -5 3 -8
8 -7 4 0 23 -6 43 -15 54 -24 151 -37 281 -37 141 0 216 23 252 77 11 18 29
35 38 38 36 12 101 105 119 173 19 65 19 67 -2 144 -25 94 -51 135 -102 164
-37 20 -75 71 -140 186 -15 25 -38 60 -52 77 -34 40 -162 101 -178 85z m153
-509 c0 -27 -43 -75 -66 -75 -16 0 -7 31 13 43 7 4 13 16 13 27 0 16 12 27 33
29 4 1 7 -10 7 -24z m-732 -131 c-4 -3 -12 5 -18 18 -12 22 -12 22 6 6 10 -10
15 -20 12 -24z m823 -92 c-11 -16 -28 -35 -38 -43 -10 -8 -3 5 16 29 37 47 53
58 22 14z"/>
<path d="M2122 6445 c0 -16 2 -22 5 -12 2 9 2 23 0 30 -3 6 -5 -1 -5 -18z"/>
<path d="M1894 6362 c-22 -26 -43 -58 -47 -71 l-6 -25 23 25 c22 22 83 120 74
119 -1 -1 -21 -22 -44 -48z"/>
<path d="M2072 6323 c-15 -48 -8 -55 8 -8 7 20 10 38 8 41 -3 2 -10 -13 -16
-33z"/>
<path d="M9132 6310 c0 -14 2 -19 5 -12 2 6 2 18 0 25 -3 6 -5 1 -5 -13z"/>
<path d="M2035 6241 c-10 -21 -12 -36 -6 -53 10 -23 10 -23 10 4 1 15 5 38 11
52 13 35 4 33 -15 -3z"/>
<path d="M1763 6193 c-94 -58 -106 -68 -102 -82 3 -8 25 3 64 32 127 96 139
112 38 50z"/>
<path d="M652 6142 c6 -61 54 -214 70 -220 4 -2 8 -13 8 -25 0 -25 55 -117 70
-117 11 0 3 28 -15 50 -22 27 -69 178 -78 253 -3 20 -10 44 -17 52 -7 8 -10
24 -7 36 3 12 3 18 0 15 -4 -3 -13 0 -21 7 -13 10 -14 4 -10 -51z"/>
<path d="M9551 6134 c0 -11 3 -14 6 -6 3 7 2 16 -1 19 -3 4 -6 -2 -5 -13z"/>
<path d="M1530 6049 c-58 -34 -166 -90 -240 -125 -74 -35 -153 -74 -175 -86
-22 -12 -50 -27 -62 -32 -13 -6 -25 -16 -27 -22 -2 -7 29 -1 72 13 42 14 92
28 109 33 50 12 110 46 203 115 47 34 118 83 158 109 61 39 82 56 69 56 -1 0
-49 -28 -107 -61z"/>
<path d="M1816 5913 c-31 -43 -56 -86 -56 -98 0 -38 47 25 100 133 11 23 18
42 16 42 -3 0 -30 -35 -60 -77z"/>
<path d="M1074 5861 c-27 -10 -63 -25 -80 -34 -37 -19 -93 -67 -78 -67 6 0 17
7 24 15 11 13 95 56 103 53 4 -2 87 43 87 47 0 3 -1 5 -2 4 -2 0 -26 -9 -54
-18z"/>
<path d="M1290 5741 c-23 -17 -215 -72 -302 -87 -21 -3 -38 -10 -38 -14 0 -5
26 -30 58 -56 31 -26 80 -69 107 -95 47 -46 140 -97 152 -85 3 3 -5 9 -18 14
-56 21 -55 20 -36 21 10 1 17 9 17 22 0 19 30 60 30 42 1 -8 24 26 25 37 3 21
18 50 25 50 13 0 60 83 60 106 0 24 -27 64 -43 64 -7 0 -23 -9 -37 -19z"/>
<path d="M1881 5734 c0 -11 3 -14 6 -6 3 7 2 16 -1 19 -3 4 -6 -2 -5 -13z"/>
<path d="M10577 5713 c-4 -3 -7 -11 -7 -17 0 -6 5 -5 12 2 6 6 9 14 7 17 -3 3
-9 2 -12 -2z"/>
<path d="M1867 5691 c-4 -17 -3 -21 5 -13 5 5 8 16 6 23 -3 8 -7 3 -11 -10z"/>
<path d="M10485 5640 c-27 -18 -49 -24 -175 -52 -25 -6 -112 -13 -195 -17
-123 -6 -145 -9 -124 -18 39 -17 124 -26 229 -25 147 2 192 9 306 49 50 17 63
46 31 68 -27 19 -35 18 -72 -5z"/>
<path d="M1660 5606 c0 -16 5 -23 15 -22 9 1 15 5 15 9 0 4 0 11 0 16 0 5 -7
11 -15 15 -11 4 -15 -1 -15 -18z"/>
<path d="M1710 5625 c0 -6 41 -75 45 -75 2 0 12 15 23 34 15 25 17 33 6 29 -7
-3 -27 0 -44 5 -16 6 -30 9 -30 7z"/>
<path d="M1798 5585 c-21 -24 -38 -51 -38 -60 0 -10 -14 -42 -31 -71 -20 -36
-29 -64 -27 -85 l3 -31 25 40 c14 22 28 38 33 35 4 -2 7 10 7 28 0 18 3 30 6
26 10 -10 54 61 58 96 2 18 7 40 11 50 12 30 -9 18 -47 -28z"/>
<path d="M9541 5584 c0 -11 3 -14 6 -6 3 7 2 16 -1 19 -3 4 -6 -2 -5 -13z"/>
<path d="M9565 5580 c3 -5 8 -10 11 -10 2 0 4 5 4 10 0 6 -5 10 -11 10 -5 0
-7 -4 -4 -10z"/>
<path d="M1666 5555 c-3 -10 5 -20 23 -30 28 -14 29 -13 24 6 -7 27 -39 44
-47 24z"/>
<path d="M9560 5523 c0 -5 7 -18 15 -29 13 -18 14 -18 8 4 -5 22 -23 41 -23
25z"/>
<path d="M1332 5505 c4 -4 3 -16 -3 -27 -8 -16 -5 -21 23 -32 20 -9 40 -11 54
-6 12 5 25 6 29 2 5 -4 0 5 -9 20 -10 14 -24 29 -32 32 -9 4 -12 2 -8 -5 3 -6
-9 -3 -27 6 -19 10 -31 14 -27 10z"/>
<path d="M10451 5406 c-28 -30 -51 -60 -51 -66 0 -12 53 -2 58 12 2 4 7 6 11
3 4 -2 15 20 23 50 8 30 14 55 13 55 -1 0 -25 -24 -54 -54z"/>
<path d="M1441 5289 c22 -22 39 -43 39 -49 0 -5 3 -10 8 -10 4 0 7 13 7 29 0
16 -3 27 -7 24 -5 -2 -8 0 -8 5 0 5 -17 16 -39 24 l-38 15 38 -38z"/>
<path d="M2075 5285 c-22 -7 -31 -13 -20 -13 11 0 36 6 55 13 45 17 17 18 -35
0z"/>
<path d="M2388 5283 c7 -3 16 -2 19 1 4 3 -2 6 -13 5 -11 0 -14 -3 -6 -6z"/>
<path d="M2334 5270 c-5 -5 -59 -15 -119 -20 -61 -6 -114 -12 -120 -14 -5 -2
-45 0 -87 3 -48 4 -74 3 -68 -3 11 -11 -80 -72 -130 -86 -60 -17 -70 -30 -24
-30 74 0 104 10 104 35 0 15 9 26 28 33 39 16 190 17 237 2 55 -17 109 -1 166
50 24 22 39 40 34 40 -6 0 -15 -4 -21 -10z"/>
<path d="M9507 5254 c-4 -4 -7 -14 -7 -23 0 -11 3 -12 11 -4 6 6 10 16 7 23
-2 6 -7 8 -11 4z"/>
<path d="M1522 5174 c21 -36 28 -42 24 -21 -6 25 -18 46 -31 51 -9 3 -7 -7 7
-30z"/>
<path d="M9560 5161 c0 -6 4 -13 10 -16 6 -3 7 1 4 9 -7 18 -14 21 -14 7z"/>
<path d="M9630 5066 c0 -10 59 -96 66 -96 3 0 -9 21 -27 48 -39 57 -39 57 -39
48z"/>
<path d="M9709 4942 c5 -10 18 -25 28 -33 12 -10 11 -5 -6 19 -24 35 -38 43
-22 14z"/>
<path d="M9793 4807 c7 -18 22 -47 35 -63 l22 -29 -10 28 c-14 40 -38 85 -50
92 -5 3 -4 -9 3 -28z"/>
<path d="M9037 4218 c5 -106 12 -150 23 -143 4 3 11 -1 14 -7 3 -7 4 28 3 78
-1 68 -5 90 -14 87 -8 -3 -13 4 -13 18 0 13 -4 30 -9 37 -4 7 -6 -24 -4 -70z"/>
<path d="M9080 3978 c0 -16 5 -28 10 -28 13 0 13 20 0 40 -8 12 -10 9 -10 -12z"/>
</g>
</svg>
